<svg width="33" height="33" viewBox="0 0 33 33" fill="none" xmlns="http://www.w3.org/2000/svg">
<circle cx="16.5" cy="16.5" r="16.5" fill="white"/>
<path d="M23.1386 10.8473L23.1391 10.8478C24.9543 12.6706 24.9521 15.5047 23.1417 17.3144L23.1416 17.3145L16.5002 23.9558L9.85884 17.3145L9.85877 17.3144C8.04808 15.5045 8.04637 12.6704 9.85789 10.8512L9.85862 10.8504C10.2824 10.4231 10.7865 10.0838 11.3419 9.85203C11.8972 9.6203 12.4929 9.50066 13.0946 9.5C14.2308 9.5001 15.3254 9.92694 16.1618 10.696L16.5002 11.0071L16.8386 10.696C17.6751 9.92707 18.7697 9.50024 19.9059 9.5C20.5069 9.50049 21.1019 9.61975 21.6566 9.85094C22.2115 10.0821 22.7151 10.4207 23.1386 10.8473Z" fill="red" stroke="#F8A4A4"/>
</svg>
